<svg width="373" height="373" viewBox="0 0 373 373" fill="none" xmlns="http://www.w3.org/2000/svg">
    <mask id="mask0_3313_481" style="mask-type:alpha" maskUnits="userSpaceOnUse" x="0" y="0"
        width="373" height="373">
        <path
            d="M319.899 25.9028C284.931 3.54489 233.125 0 186.5 0C139.875 0 88.0694 3.54489 53.1007 25.9028C41.9163 33.0537 33.0537 41.9163 25.9028 53.1007C3.54489 88.0694 0 139.875 0 186.5C0 233.125 3.54489 284.931 25.9028 319.899C33.0537 331.084 41.9163 339.946 53.1007 347.097C88.0694 369.455 139.875 373 186.5 373C233.125 373 284.931 369.455 319.899 347.097C331.084 339.946 339.946 331.084 347.097 319.899C369.455 284.931 373 233.125 373 186.5C373 139.875 369.455 88.0694 347.097 53.1007C339.946 41.9163 331.084 33.0537 319.899 25.9028Z"
            fill="#FF9800"
            style="fill:#FF9800;fill-opacity:1;" />
    </mask>
    <g mask="url(#mask0_3313_481)">
        <rect x="-30" y="-30" width="432" height="432" fill="#FF678C"
            style="fill:#FF678C;fill-opacity:1;" />
        <rect x="124.298" y="271.8" width="123.404" height="21.1388" rx="5" fill="#580711"
            style="fill:#580711;fill-opacity:1;" />
        <rect x="103.398" y="235.562" width="19.9039" height="20.1322" rx="5" fill="#580711"
            style="fill:#580711;fill-opacity:1;" />
        <rect x="103.399" y="199.324" width="19.9039" height="20.1322" rx="5" fill="#580711"
            style="fill:#580711;fill-opacity:1;" />
        <rect x="140.221" y="235.562" width="19.9039" height="20.1322" rx="5" fill="#580711"
            style="fill:#580711;fill-opacity:1;" />
        <rect x="211.875" y="235.562" width="19.9039" height="20.1322" rx="5" fill="#580711"
            style="fill:#580711;fill-opacity:1;" />
        <rect x="248.697" y="199.324" width="19.9039" height="20.1322" rx="5" fill="#580711"
            style="fill:#580711;fill-opacity:1;" />
        <rect x="248.697" y="235.562" width="19.9039" height="20.1322" rx="5" fill="#580711"
            style="fill:#580711;fill-opacity:1;" />
        <path
            d="M134 92H238.926C241.697 92 243.94 94.2535 243.926 97.0245L243.515 180.842C243.508 182.319 242.848 183.718 241.712 184.662L186.006 230.975L130.789 184.714C129.655 183.763 129 182.36 129 180.881V97C129 94.2386 131.239 92 134 92ZM189.204 233.655L189.199 233.65C189.201 233.652 189.202 233.653 189.204 233.655Z"
            stroke="white" style="stroke:white;stroke:white;stroke-opacity:1;" stroke-width="20" />
    </g>
</svg>
